<?xml version="1.0" standalone="no"?>
<!DOCTYPE svg PUBLIC "-//W3C//DTD SVG 20010904//EN"
 "http://www.w3.org/TR/2001/REC-SVG-20010904/DTD/svg10.dtd">
<svg version="1.0" xmlns="http://www.w3.org/2000/svg"
 width="1920.000000pt" height="1920.000000pt" viewBox="0 0 1920.000000 1920.000000"
 preserveAspectRatio="xMidYMid meet">
<metadata>
Created by potrace 1.14, written by Peter Selinger 2001-2017
</metadata>
<g transform="translate(0.000000,1920.000000) scale(0.100000,-0.100000)"
fill="#000000" stroke="none">
<path d="M9139 16306 c-2 -2 -49 -7 -104 -10 -54 -4 -101 -9 -105 -11 -3 -2
-30 -6 -60 -10 -90 -11 -308 -70 -410 -110 -286 -114 -495 -275 -667 -514
-194 -268 -284 -600 -249 -915 24 -211 93 -427 178 -553 15 -23 28 -44 28 -47
0 -6 7 -15 73 -94 94 -111 238 -214 388 -277 93 -39 106 -54 90 -98 -12 -31 2
-27 -271 -82 -284 -58 -248 -50 -436 -95 -542 -130 -1140 -334 -1639 -558 -60
-27 -144 -64 -185 -82 -194 -87 -723 -364 -908 -475 -9 -6 -39 -24 -67 -40
-151 -89 -364 -227 -545 -354 -127 -89 -409 -297 -420 -310 -3 -3 -50 -42
-105 -86 -55 -44 -102 -82 -105 -85 -3 -3 -52 -46 -110 -95 -255 -219 -660
-623 -876 -874 -16 -19 -34 -39 -39 -45 -9 -9 -205 -249 -261 -318 -25 -32
-209 -282 -244 -333 -19 -27 -39 -54 -43 -60 -29 -35 -327 -475 -327 -481 0
-3 -5 -10 -10 -17 -34 -40 -206 -325 -310 -512 -84 -151 -187 -357 -249 -495
-18 -41 -42 -95 -53 -120 -119 -264 -288 -792 -332 -1030 -2 -14 -9 -45 -14
-70 -15 -65 -31 -149 -38 -195 -3 -22 -7 -51 -9 -64 -2 -13 -7 -45 -11 -70 -3
-25 -8 -57 -10 -71 -2 -14 -6 -52 -9 -85 -4 -33 -8 -73 -10 -90 -24 -181 -24
-847 0 -973 1 -10 6 -49 9 -87 4 -39 8 -80 10 -91 2 -12 7 -45 11 -75 3 -30 8
-65 10 -79 8 -44 16 -94 20 -120 2 -14 10 -59 19 -100 8 -41 18 -88 20 -105 7
-39 64 -271 76 -310 5 -16 21 -70 36 -120 14 -49 28 -97 31 -105 3 -8 7 -19 9
-25 4 -17 101 -287 125 -348 l23 -59 109 114 c60 62 224 232 366 376 141 145
294 303 340 350 46 48 204 211 351 362 147 151 307 316 355 365 48 50 205 212
350 360 144 149 295 304 335 345 40 41 154 159 254 261 189 194 626 643 781
804 76 78 383 394 700 720 258 266 613 631 680 700 42 44 195 202 340 350 144
149 319 328 388 400 69 71 127 128 130 125 9 -12 413 -476 422 -486 5 -6 30
-35 54 -64 25 -29 50 -58 56 -64 6 -6 130 -148 275 -316 145 -168 274 -316
287 -330 30 -34 55 -63 153 -179 47 -55 87 -100 90 -100 3 -1 19 11 35 27 17
15 68 61 115 102 47 41 87 77 90 80 4 4 47 42 224 200 22 19 62 56 90 81 28
26 121 108 206 184 85 76 191 170 235 210 44 39 107 96 140 125 33 29 76 67
95 84 46 42 503 450 599 535 41 36 82 73 91 81 9 8 76 69 150 134 74 66 142
127 151 135 9 9 44 41 79 71 35 30 70 62 79 71 9 8 79 71 156 139 77 69 142
127 145 130 3 3 43 39 90 79 47 41 90 80 95 85 6 6 48 44 95 85 47 41 90 79
95 85 6 6 30 29 55 50 75 66 192 170 215 191 12 11 55 50 97 87 l75 67 28 -35
c46 -58 727 -885 823 -999 9 -11 35 -42 57 -70 22 -27 42 -52 45 -55 3 -3 48
-57 100 -120 52 -63 97 -117 100 -120 3 -3 23 -27 45 -55 48 -60 64 -80 88
-108 23 -27 62 -74 159 -192 41 -49 132 -160 202 -245 71 -85 143 -173 161
-195 18 -22 78 -94 132 -160 326 -395 405 -492 416 -505 7 -9 46 -56 87 -105
41 -49 82 -99 92 -110 9 -11 72 -87 139 -170 68 -82 134 -161 147 -175 l23
-25 54 60 c180 197 338 432 464 690 208 424 305 835 305 1300 0 119 -10 292
-19 348 -13 76 -28 186 -29 210 -1 26 8 33 123 93 205 108 486 285 621 391
325 255 568 495 812 804 39 49 73 89 77 89 13 0 151 144 196 205 105 141 175
343 179 514 3 146 -23 253 -99 401 -37 73 -156 265 -174 280 -3 3 -25 30 -47
60 -70 94 -120 147 -390 415 -144 143 -297 301 -340 350 -162 186 -297 322
-538 540 -49 44 -101 91 -116 105 -405 370 -684 567 -1050 743 -160 77 -156
76 -357 156 -225 90 -813 244 -1053 275 -25 3 -54 8 -66 10 -19 4 -39 7 -154
21 -34 4 -134 15 -195 21 -225 21 -757 21 -930 -1 -16 -2 -61 -7 -100 -10 -38
-3 -81 -8 -95 -10 -14 -2 -50 -7 -80 -10 -30 -3 -66 -7 -80 -9 -14 -3 -57 -10
-97 -16 l-71 -12 -85 70 c-242 197 -483 338 -751 437 -100 37 -287 89 -360
101 -21 3 -48 8 -60 10 -20 4 -43 7 -151 20 -56 6 -421 15 -426 10z m4906
-2311 c147 -35 257 -120 326 -250 60 -113 56 -238 -9 -309 -25 -26 -95 -64
-149 -80 -43 -14 -153 -14 -221 -1 -138 27 -258 113 -314 226 -123 246 -2 434
272 424 36 -1 79 -6 95 -10z m1365 -1349 c25 -2 90 -7 145 -10 115 -7 206 -14
285 -22 30 -3 80 -8 110 -10 30 -2 66 -6 80 -9 14 -2 52 -7 85 -10 33 -3 69
-7 80 -10 11 -2 32 -4 48 -4 15 -1 27 -5 27 -9 0 -4 -30 -8 -67 -9 -127 -2
-600 -13 -729 -18 -71 -2 -203 -7 -294 -10 -283 -9 -583 -22 -695 -30 -38 -3
-106 -7 -150 -10 -198 -13 -483 -37 -585 -50 -19 -2 -60 -7 -90 -10 -30 -4
-66 -8 -80 -10 -14 -3 -47 -7 -75 -10 -27 -2 -59 -6 -70 -9 -27 -5 -93 -16
-130 -21 -16 -2 -66 -11 -110 -19 -44 -9 -93 -18 -110 -21 -16 -3 -41 -8 -55
-11 -14 -3 -36 -8 -50 -10 -14 -3 -88 -21 -165 -40 -77 -19 -149 -36 -160 -39
-67 -15 -348 -102 -470 -145 -33 -12 -67 -23 -75 -25 -17 -3 -339 -128 -385
-149 -16 -8 -64 -28 -105 -46 -104 -45 -457 -219 -559 -276 -46 -26 -81 -42
-77 -36 10 16 230 162 244 162 7 0 12 5 12 10 0 6 4 10 9 10 4 0 48 23 97 51
85 49 417 219 428 219 2 0 44 19 93 41 247 115 710 280 1021 364 156 42 397
99 466 111 17 2 76 13 131 24 55 10 120 21 145 24 25 3 54 7 65 10 11 2 47 7
80 10 33 4 71 8 85 11 14 2 50 6 80 9 30 3 80 8 110 11 111 11 178 15 320 21
80 3 147 8 149 10 4 4 831 -5 891 -10z m820 -330 c0 -4 -88 -35 -295 -106
-267 -92 -693 -260 -895 -352 -41 -19 -109 -50 -150 -68 -111 -50 -486 -242
-630 -323 -69 -38 -145 -81 -170 -95 -188 -105 -626 -389 -825 -534 -44 -32
-91 -66 -104 -75 -13 -10 -30 -24 -37 -30 -7 -7 -15 -13 -19 -13 -3 0 -23 -13
-43 -30 -20 -16 -75 -59 -122 -95 -117 -91 -136 -106 -279 -222 -69 -56 -128
-100 -130 -98 -18 19 292 324 531 522 57 47 113 94 125 104 12 10 71 55 130
99 59 45 115 86 123 93 78 62 608 407 625 407 2 0 28 14 57 31 109 65 421 225
543 279 28 12 75 34 105 47 130 60 383 159 575 227 118 41 408 133 445 141 8
2 62 15 120 30 113 29 111 29 215 48 74 14 105 18 105 13z"/>
<path d="M11279 10437 c-26 -23 -80 -71 -120 -107 -40 -36 -77 -69 -83 -75
-10 -9 -121 -108 -230 -205 -22 -19 -47 -42 -56 -50 -9 -8 -76 -69 -150 -134
-74 -66 -139 -124 -145 -130 -5 -6 -28 -26 -50 -45 -22 -18 -60 -52 -85 -75
-25 -22 -83 -75 -130 -116 -46 -41 -91 -82 -100 -90 -9 -8 -47 -42 -84 -75
-38 -33 -74 -65 -80 -70 -18 -18 -315 -283 -406 -364 -47 -41 -92 -82 -101
-91 -8 -8 -49 -44 -89 -80 -40 -36 -78 -70 -84 -75 -6 -6 -47 -42 -90 -80 -44
-39 -87 -77 -96 -85 -33 -31 -99 -90 -250 -224 -213 -190 -304 -272 -370 -331
-30 -27 -68 -61 -85 -76 -16 -14 -59 -53 -95 -85 -37 -33 -74 -66 -83 -74 -9
-8 -34 -31 -55 -50 -21 -19 -67 -60 -101 -90 -74 -64 -100 -87 -162 -146 l-47
-43 -39 42 c-21 23 -92 105 -158 182 -66 77 -136 157 -155 179 -19 21 -39 44
-45 50 -5 6 -50 58 -100 116 -49 58 -92 107 -95 110 -3 3 -48 55 -100 115 -52
61 -107 124 -121 140 -51 58 -192 220 -213 245 -57 68 -151 176 -161 185 -5 6
-33 37 -60 70 -77 92 -73 89 -92 73 -18 -14 -240 -240 -355 -360 -40 -42 -201
-207 -358 -368 -157 -160 -316 -325 -355 -365 -38 -40 -197 -203 -352 -361
-154 -159 -320 -329 -368 -379 -48 -49 -212 -218 -364 -374 -152 -156 -316
-324 -365 -375 -48 -50 -214 -220 -368 -378 -154 -158 -316 -325 -360 -370
-44 -46 -202 -208 -352 -362 -149 -153 -309 -318 -356 -366 -356 -366 -691
-710 -832 -854 -292 -300 -379 -392 -363 -384 84 41 235 112 495 233 74 35
189 88 254 119 65 31 140 66 165 78 25 11 98 45 161 76 63 30 142 67 175 82
33 15 101 47 150 70 50 23 151 70 225 105 74 35 185 86 245 115 103 49 332
156 505 237 41 19 113 53 160 75 47 22 117 55 155 73 78 36 204 95 343 161 51
24 126 60 167 79 130 61 217 101 320 150 55 26 156 73 225 105 69 32 172 80
230 108 290 137 386 182 395 182 4 0 156 -68 495 -223 30 -14 80 -36 110 -50
91 -42 182 -83 245 -112 140 -64 634 -289 673 -307 24 -11 46 -18 48 -15 3 2
0 24 -5 48 -5 24 -13 60 -16 79 -3 19 -8 42 -10 50 -2 8 -6 31 -9 50 -3 19
-24 127 -46 239 -22 112 -42 216 -45 230 -2 14 -23 121 -46 236 -44 230 -42
218 -70 358 -10 53 -21 112 -24 130 -3 17 -11 57 -17 87 -6 30 -12 60 -13 65
0 6 -4 24 -7 40 -4 17 -26 127 -48 245 -23 118 -59 305 -80 415 -22 110 -42
213 -44 229 -3 16 -10 52 -16 80 -42 203 -52 205 125 -24 87 -113 167 -217
179 -231 12 -14 30 -38 41 -53 11 -16 30 -40 41 -55 12 -14 99 -127 194 -251
184 -240 215 -280 326 -423 155 -202 1423 -1849 1498 -1947 44 -58 98 -128
120 -156 23 -28 102 -131 176 -229 74 -97 140 -182 145 -189 6 -6 62 -78 125
-161 63 -82 120 -157 127 -165 11 -14 297 -386 402 -523 24 -31 45 -57 47 -57
1 0 2 8 2 18 0 9 2 85 6 167 4 83 9 197 11 255 2 58 7 164 10 235 3 72 8 189
10 260 3 72 7 171 9 220 3 50 7 171 11 270 3 99 8 216 10 260 3 44 7 150 10
235 11 284 14 354 20 490 3 74 8 194 10 265 3 72 7 180 10 240 2 61 7 164 9
230 3 66 8 194 11 285 7 181 14 312 18 316 1 1 52 -6 112 -16 61 -10 128 -21
150 -24 45 -7 138 -23 175 -30 14 -3 43 -7 65 -11 22 -3 69 -10 105 -16 36 -6
79 -13 95 -15 17 -3 55 -9 85 -14 30 -5 69 -12 85 -14 17 -3 111 -19 210 -35
99 -16 200 -33 225 -36 25 -3 52 -8 60 -10 8 -2 33 -7 55 -10 22 -4 49 -8 60
-10 11 -2 40 -6 65 -9 25 -3 56 -8 70 -11 14 -3 68 -12 120 -21 52 -8 109 -18
125 -21 103 -17 130 -21 134 -18 3 3 -109 304 -154 415 -8 19 -49 125 -90 235
-41 110 -79 209 -84 220 -5 11 -91 236 -191 500 -100 264 -199 525 -221 580
-106 274 -246 645 -243 645 2 0 29 -33 61 -72 32 -40 60 -75 63 -78 3 -3 55
-68 116 -145 60 -77 117 -149 126 -160 10 -11 42 -51 73 -90 31 -38 67 -83 80
-100 13 -16 65 -82 116 -145 50 -63 106 -133 124 -155 34 -42 190 -237 240
-301 17 -21 62 -77 100 -125 87 -108 244 -305 810 -1014 246 -308 460 -576
476 -595 27 -33 1169 -1462 1533 -1918 93 -117 170 -211 172 -210 3 4 16 170
29 398 10 173 17 294 31 500 3 52 7 122 9 155 8 143 16 283 20 320 2 22 4 75
6 118 2 91 -4 90 124 22 44 -23 184 -95 310 -160 127 -65 236 -122 243 -128
18 -15 23 -4 13 29 -8 26 -35 137 -45 190 -4 18 -32 132 -92 384 -14 58 -28
116 -30 128 -3 13 -20 87 -40 165 -19 78 -52 219 -74 312 -22 94 -62 265 -90
380 -61 251 -64 262 -53 251 9 -9 331 -317 403 -386 115 -110 398 -380 450
-430 31 -30 135 -129 230 -220 96 -91 199 -190 231 -220 52 -51 340 -326 448
-429 25 -24 123 -117 216 -206 94 -90 186 -178 205 -196 19 -18 87 -82 150
-143 64 -61 125 -118 135 -126 19 -14 19 -14 5 7 -17 25 -483 671 -540 748
-20 28 -79 109 -130 180 -51 72 -106 148 -122 170 -16 22 -47 65 -68 95 -22
30 -43 60 -48 65 -8 11 -243 336 -277 385 -22 32 -588 816 -703 975 -40 55
-81 111 -90 125 -20 29 -388 540 -400 555 -4 6 -30 42 -57 80 -27 39 -53 75
-58 80 -4 6 -67 91 -138 190 -71 99 -134 180 -139 180 -5 0 -342 -332 -749
-738 l-740 -738 -24 28 c-14 15 -71 84 -128 153 -57 69 -144 175 -194 235 -50
61 -145 175 -211 255 -66 80 -185 224 -265 320 -79 96 -185 225 -234 285 -49
61 -105 128 -124 151 -20 22 -45 51 -56 65 -47 58 -111 135 -120 146 -5 6 -24
28 -42 50 -120 147 -732 887 -762 923 -21 25 -85 102 -142 171 -261 318 -560
679 -562 679 -1 0 -23 -19 -48 -43z"/>
</g>
</svg>
